<svg width="368" height="177" viewBox="0 0 368 177" fill="none" xmlns="http://www.w3.org/2000/svg">
<path d="M14.7368 177C11.6583 176.997 8.65794 176.032 6.15607 174.24C3.65419 172.448 1.77619 169.92 0.785205 167.008C-0.205779 164.097 -0.260083 160.949 0.629899 158.005C1.51988 155.061 3.30955 152.469 5.74814 150.593C5.61142 149.752 5.54461 148.901 5.5484 148.049C5.56054 144.83 6.52448 141.687 8.31916 139.014C10.1138 136.341 12.6592 134.257 15.6356 133.024C17.1934 129.461 19.4716 126.259 22.3272 123.617C20.4169 121.189 18.7446 118.583 17.3335 115.835C11.2612 103.953 13.0988 90.176 22.1374 79.9204C24.7912 77.0158 27.74 74.3945 30.9363 72.0989C29.1287 73.184 27.0525 73.7405 24.9439 73.7051C22.5427 73.6526 20.1722 73.1554 17.9527 72.2386C16.6044 71.6899 12.7493 70.1236 11.5208 66.5919C9.83541 65.5787 8.54875 64.0188 7.87546 62.1724C4.87925 55.189 4.48974 49.2831 6.7369 44.4545C8.16083 41.3434 10.6918 38.8721 13.8379 37.521L26.2123 29.2705C27.0602 27.3951 28.1588 25.6433 29.4781 24.0629L30.0774 23.3047L37.5879 18.4163L31.0461 0L52.1994 10.0561C55.975 8.84133 59.918 8.2253 63.8846 8.23047C75.8695 8.23047 87.1751 13.6276 97.602 24.2724C115.03 42.0502 113.582 74.4234 102.206 94.2264C98.7605 100.212 94.436 104.951 90.2213 109.51C87.4741 112.403 84.8837 115.44 82.4611 118.609C88.7432 122.599 93.4472 127.707 95.5945 133.034C98.5623 134.262 101.102 136.336 102.896 138.998C104.69 141.659 105.659 144.79 105.682 147.999C105.68 148.686 105.634 149.373 105.542 150.054C108.155 151.83 110.128 154.396 111.172 157.376C112.215 160.355 112.274 163.591 111.34 166.606C110.405 169.622 108.526 172.258 105.979 174.127C103.433 175.996 100.353 177 97.1925 176.99L14.7368 177ZM34.7115 67.4699C34.142 68.8613 33.2604 70.1036 32.1348 71.1013L34.2022 69.5948C36.8533 67.7318 39.4067 65.7339 41.8525 63.609L41.5129 63.4195L34.7115 67.4699Z" fill="white"/>
<path d="M98.1692 153.411C99.0894 151.956 99.6304 150.294 99.7426 148.575C99.8548 146.857 99.5345 145.138 98.8113 143.576C98.088 142.013 96.9847 140.658 95.6027 139.633C94.2207 138.609 92.604 137.948 90.9009 137.712C89.8126 131.712 83.5827 125.053 74.6171 120.883C75.1859 118.744 76.2074 116.752 77.6123 115.043C83.7524 106.564 91.7296 100.304 97.051 90.995C107.145 73.3661 108.792 43.7979 93.3769 27.9989C75.7952 10.0001 59.6611 12.9199 51.9136 15.9997L41.4804 11L44.7551 20.2994L34.1023 27.359C34.1023 27.359 31.2968 30.8787 31.2968 32.6386L16.5705 42.458C16.5705 42.458 7.10569 45.2678 13.4155 59.6669C13.4155 59.6669 14.1244 61.9468 16.221 61.1668L22.6207 56.9671C22.7399 56.6297 22.9273 56.3205 23.1712 56.0589C23.4152 55.7974 23.7104 55.5892 24.0385 55.4472C25.1666 54.8973 26.3747 55.0872 26.7341 55.8472C27.0935 56.6071 26.4945 57.677 25.3663 58.217C24.98 58.4065 24.5582 58.5121 24.1283 58.527L17.7985 63.0068C17.7985 63.0068 15.0729 64.3167 20.2446 66.4265C20.2446 66.4265 28.9506 70.1163 29.6894 63.2667L41.73 56.1571C44.7706 58.3937 48.2471 59.9642 51.9336 60.7668C46.1728 70.3562 33.8926 75.276 26.6443 83.5655C19.3959 91.8549 17.5888 102.994 22.6507 112.944C24.8385 117.081 27.6203 120.874 30.9074 124.203C25.1167 128.203 21.2529 133.132 20.4143 137.752C18.7002 137.99 17.0738 138.657 15.686 139.693C14.2983 140.728 13.1942 142.098 12.4762 143.675C11.7581 145.252 11.4495 146.985 11.5788 148.713C11.7081 150.441 12.2712 152.109 13.2159 153.561C11.0582 153.951 9.1246 155.137 7.79568 156.883C6.46675 158.63 5.83878 160.811 6.03536 162.999C6.23195 165.186 7.23886 167.22 8.85789 168.701C10.4769 170.182 12.5908 171.002 14.7833 171H97.2307C99.4784 170.996 101.639 170.129 103.268 168.578C104.897 167.027 105.87 164.909 105.988 162.661C106.106 160.413 105.359 158.205 103.9 156.492C102.442 154.779 100.384 153.691 98.1492 153.451L98.1692 153.411ZM38.8347 31.1087C38.8347 31.1087 35.48 35.5585 35.9992 38.2483L20.4043 48.1377C20.4043 48.1377 14.4139 51.1875 15.4722 54.6273C15.4722 54.6273 11.4787 48.8076 19.2362 44.7979L33.3734 36.0184C33.3734 36.0184 34.3718 31.2587 37.2272 29.0789L49.1481 22.6793L38.8347 31.1087ZM24.348 155.351H23.7489C21.9113 155.351 20.1489 154.62 18.8495 153.318C17.5501 152.017 16.8201 150.252 16.8201 148.411C16.8201 146.571 17.5501 144.806 18.8495 143.504C20.1489 142.203 21.9113 141.472 23.7489 141.472H24.348C23.1408 142.182 22.14 143.197 21.4446 144.414C20.7492 145.631 20.3834 147.009 20.3834 148.411C20.3834 149.814 20.7492 151.192 21.4446 152.409C22.14 153.626 23.1408 154.64 24.348 155.351ZM46.9915 124.963C38.9245 127.073 34.3718 137.962 34.3718 137.962H27.0037C31.5663 127.073 38.5751 124.963 38.5751 124.963C9.48187 100.564 34.0224 81.4256 34.0224 81.4256C44.6852 74.726 55.987 63.1667 55.987 63.1667C53.2614 72.2961 38.1957 83.5354 38.1957 83.5354C14.7634 106.354 46.9915 124.933 46.9915 124.933V124.963Z" fill="black"/>
<path d="M147.94 89.81C142.78 89.81 138.76 88.73 135.88 86.57C133.06 84.41 131.08 81.5 129.94 77.84C128.86 74.18 128.32 70.1 128.32 65.6V39.86C128.32 34.94 128.86 30.65 129.94 26.99C131.08 23.33 133.06 20.51 135.88 18.53C138.76 16.49 142.78 15.47 147.94 15.47C152.5 15.47 156.1 16.31 158.74 17.99C161.44 19.67 163.36 22.07 164.5 25.19C165.7 28.31 166.3 32.06 166.3 36.44V42.2H156.67V37.07C156.67 34.37 156.52 32 156.22 29.96C155.98 27.86 155.26 26.24 154.06 25.1C152.86 23.96 150.85 23.39 148.03 23.39C145.15 23.39 143.05 24.02 141.73 25.28C140.41 26.48 139.54 28.22 139.12 30.5C138.76 32.72 138.58 35.33 138.58 38.33V67.22C138.58 70.88 138.88 73.79 139.48 75.95C140.08 78.05 141.07 79.55 142.45 80.45C143.83 81.35 145.69 81.8 148.03 81.8C150.79 81.8 152.77 81.2 153.97 80C155.17 78.74 155.92 77.03 156.22 74.87C156.52 72.71 156.67 70.19 156.67 67.31V61.91H166.3V67.31C166.3 71.75 165.76 75.68 164.68 79.1C163.6 82.46 161.74 85.1 159.1 87.02C156.46 88.88 152.74 89.81 147.94 89.81ZM181.838 89V16.1H192.008V47.6H210.728V16.1H220.898V89H210.728V54.89H192.008V89H181.838ZM238.138 89V16.1H266.398V23.66H248.308V47.78H262.978V54.98H248.308V81.71H266.578V89H238.138ZM297.828 89.81C293.628 89.81 290.118 88.91 287.298 87.11C284.538 85.31 282.438 82.82 280.998 79.64C279.558 76.46 278.718 72.77 278.478 68.57L287.478 66.14C287.658 68.72 288.048 71.21 288.648 73.61C289.308 76.01 290.358 77.99 291.798 79.55C293.238 81.05 295.248 81.8 297.828 81.8C300.468 81.8 302.448 81.08 303.768 79.64C305.148 78.14 305.838 76.01 305.838 73.25C305.838 69.95 305.088 67.31 303.588 65.33C302.088 63.29 300.198 61.25 297.918 59.21L285.678 48.41C283.278 46.31 281.508 44.03 280.368 41.57C279.228 39.05 278.658 35.96 278.658 32.3C278.658 26.96 280.188 22.82 283.248 19.88C286.308 16.94 290.478 15.47 295.758 15.47C298.638 15.47 301.158 15.86 303.318 16.64C305.538 17.36 307.368 18.5 308.808 20.06C310.308 21.62 311.478 23.6 312.318 26C313.218 28.34 313.818 31.1 314.118 34.28L305.478 36.62C305.298 34.22 304.938 32.03 304.398 30.05C303.858 28.01 302.898 26.39 301.518 25.19C300.198 23.93 298.278 23.3 295.758 23.3C293.238 23.3 291.258 23.99 289.818 25.37C288.438 26.69 287.748 28.67 287.748 31.31C287.748 33.53 288.108 35.36 288.828 36.8C289.608 38.24 290.838 39.71 292.518 41.21L304.848 52.01C307.608 54.41 310.038 57.29 312.138 60.65C314.238 63.95 315.288 67.88 315.288 72.44C315.288 76.04 314.538 79.16 313.038 81.8C311.538 84.38 309.468 86.36 306.828 87.74C304.248 89.12 301.248 89.81 297.828 89.81ZM346.217 89.81C342.017 89.81 338.507 88.91 335.687 87.11C332.927 85.31 330.827 82.82 329.387 79.64C327.947 76.46 327.107 72.77 326.867 68.57L335.867 66.14C336.047 68.72 336.437 71.21 337.037 73.61C337.697 76.01 338.747 77.99 340.187 79.55C341.627 81.05 343.637 81.8 346.217 81.8C348.857 81.8 350.837 81.08 352.157 79.64C353.537 78.14 354.227 76.01 354.227 73.25C354.227 69.95 353.477 67.31 351.977 65.33C350.477 63.29 348.587 61.25 346.307 59.21L334.067 48.41C331.667 46.31 329.897 44.03 328.757 41.57C327.617 39.05 327.047 35.96 327.047 32.3C327.047 26.96 328.577 22.82 331.637 19.88C334.697 16.94 338.867 15.47 344.147 15.47C347.027 15.47 349.547 15.86 351.707 16.64C353.927 17.36 355.757 18.5 357.197 20.06C358.697 21.62 359.867 23.6 360.707 26C361.607 28.34 362.207 31.1 362.507 34.28L353.867 36.62C353.687 34.22 353.327 32.03 352.787 30.05C352.247 28.01 351.287 26.39 349.907 25.19C348.587 23.93 346.667 23.3 344.147 23.3C341.627 23.3 339.647 23.99 338.207 25.37C336.827 26.69 336.137 28.67 336.137 31.31C336.137 33.53 336.497 35.36 337.217 36.8C337.997 38.24 339.227 39.71 340.907 41.21L353.237 52.01C355.997 54.41 358.427 57.29 360.527 60.65C362.627 63.95 363.677 67.88 363.677 72.44C363.677 76.04 362.927 79.16 361.427 81.8C359.927 84.38 357.857 86.36 355.217 87.74C352.637 89.12 349.637 89.81 346.217 89.81Z" fill="white"/>
<path d="M139.12 176L127.24 103.1H135.7L143.53 155.48L153.34 103.37H160.54L170.44 155.75L178.09 103.1H186.37L174.67 176H167.29L157.12 122L146.86 176H139.12ZM213.163 176.81C208.243 176.81 204.313 175.85 201.373 173.93C198.433 172.01 196.333 169.28 195.073 165.74C193.813 162.14 193.183 157.94 193.183 153.14V125.51C193.183 120.71 193.813 116.6 195.073 113.18C196.393 109.7 198.493 107.06 201.373 105.26C204.313 103.4 208.243 102.47 213.163 102.47C218.083 102.47 221.983 103.4 224.863 105.26C227.743 107.12 229.813 109.76 231.073 113.18C232.393 116.6 233.053 120.71 233.053 125.51V153.23C233.053 157.97 232.393 162.11 231.073 165.65C229.813 169.19 227.743 171.95 224.863 173.93C221.983 175.85 218.083 176.81 213.163 176.81ZM213.163 168.8C215.863 168.8 217.903 168.26 219.283 167.18C220.663 166.04 221.593 164.48 222.073 162.5C222.553 160.46 222.793 158.09 222.793 155.39V123.44C222.793 120.74 222.553 118.43 222.073 116.51C221.593 114.53 220.663 113.03 219.283 112.01C217.903 110.93 215.863 110.39 213.163 110.39C210.463 110.39 208.393 110.93 206.953 112.01C205.573 113.03 204.643 114.53 204.163 116.51C203.683 118.43 203.443 120.74 203.443 123.44V155.39C203.443 158.09 203.683 160.46 204.163 162.5C204.643 164.48 205.573 166.04 206.953 167.18C208.393 168.26 210.463 168.8 213.163 168.8ZM243.049 176V103.1H257.719C262.579 103.1 266.599 103.76 269.779 105.08C272.959 106.34 275.299 108.41 276.799 111.29C278.359 114.11 279.139 117.83 279.139 122.45C279.139 125.27 278.839 127.85 278.239 130.19C277.639 132.47 276.679 134.42 275.359 136.04C274.039 137.6 272.299 138.74 270.139 139.46L280.489 176H270.679L261.139 141.8H253.219V176H243.049ZM253.219 134.51H257.089C259.969 134.51 262.309 134.15 264.109 133.43C265.909 132.71 267.229 131.48 268.069 129.74C268.909 128 269.329 125.57 269.329 122.45C269.329 118.19 268.549 115.13 266.989 113.27C265.429 111.35 262.339 110.39 257.719 110.39H253.219V134.51ZM289.719 176V103.1H299.889V168.71H318.519V176H289.719ZM325.49 176V103.1H341.33C346.73 103.1 350.99 103.94 354.11 105.62C357.29 107.24 359.54 109.7 360.86 113C362.24 116.3 362.93 120.41 362.93 125.33V152.15C362.93 157.31 362.24 161.66 360.86 165.2C359.54 168.74 357.35 171.44 354.29 173.3C351.29 175.1 347.24 176 342.14 176H325.49ZM335.66 168.71H341.42C345.14 168.71 347.78 167.99 349.34 166.55C350.9 165.11 351.83 163.01 352.13 160.25C352.49 157.49 352.67 154.16 352.67 150.26V126.59C352.67 122.81 352.43 119.75 351.95 117.41C351.47 115.07 350.42 113.36 348.8 112.28C347.18 111.2 344.63 110.66 341.15 110.66H335.66V168.71Z" fill="#F1AE38"/>
</svg>
