<svg width="42" height="91" viewBox="0 0 42 91" fill="none" xmlns="http://www.w3.org/2000/svg">
<path d="M36.329 79.9515V77.2415C37.822 76.6955 38.893 75.2635 38.893 73.5825C38.893 71.7875 37.672 70.2755 36.018 69.8235C35.582 68.3575 34.466 64.6355 33.624 62.1695C32.84 59.8735 31.961 49.9405 31.608 45.2815C33.111 44.7395 34.191 43.3025 34.191 41.6155V41.3505C35.685 40.8035 36.755 39.3715 36.755 37.6905C36.755 36.0095 35.685 34.5785 34.191 34.0315V33.7015C34.191 31.9495 33.029 30.4635 31.434 29.9735C31.521 28.9925 31.661 27.6845 31.821 27.0375C32.009 26.2735 32.565 25.3405 33.103 24.4365C33.476 23.8095 33.83 23.2155 34.095 22.6335C34.166 22.4755 34.264 22.2865 34.374 22.0715C35.184 20.4965 36.868 17.2185 34.459 14.8515C32.47 12.8985 28.855 11.7765 23.699 11.5045C23.446 10.5985 23.401 9.7375 23.462 9.3295C23.697 9.3495 24.04 9.4155 24.272 9.4595C25.223 9.6425 26.3 9.8495 27.024 9.1265C27.712 8.4375 27.815 7.2265 27.815 6.5655C27.815 5.9045 27.711 4.6935 27.024 4.0065C26.305 3.2885 25.246 3.5155 24.31 3.7165C24.156 3.7495 23.95 3.7935 23.763 3.8265C23.788 3.6825 23.822 3.5335 23.846 3.4185C24.034 2.5465 24.245 1.5605 23.557 0.8715C22.395 -0.2905 18.934 -0.2905 17.772 0.8715C17.084 1.5605 17.296 2.5475 17.483 3.4185C17.508 3.5335 17.539 3.6825 17.566 3.8265C17.378 3.7935 17.173 3.7495 17.019 3.7165C16.083 3.5155 15.024 3.2875 14.306 4.0055C13.618 4.6935 13.514 5.9045 13.514 6.5655C13.514 7.2255 13.617 8.4375 14.306 9.1265C15.03 9.8505 16.114 9.6475 17.071 9.4675C17.307 9.4235 17.66 9.3575 17.896 9.3385C17.944 9.6875 17.914 10.4535 17.606 11.5595C13.678 11.8405 9.451 12.6845 7.039 14.8345C4.248 17.3205 6.283 20.7945 7.151 22.2775C7.245 22.4375 7.329 22.5785 7.394 22.6995C7.602 23.0845 7.843 23.4875 8.097 23.9145C8.711 24.9445 9.407 26.1125 9.635 27.0365C9.794 27.6835 9.935 28.9915 10.022 29.9725C8.428 30.4625 7.265 31.9485 7.265 33.7005V34.2165C5.999 34.8615 5.128 36.1745 5.128 37.6905C5.128 39.2065 5.999 40.5195 7.265 41.1655V41.6155C7.265 43.3035 8.345 44.7395 9.848 45.2815C9.495 49.9405 8.617 59.8735 7.833 62.1695C6.99 64.6365 5.874 68.3575 5.439 69.8235C3.784 70.2755 2.564 71.7875 2.564 73.5825C2.564 75.2645 3.635 76.6955 5.128 77.2415V79.9515C2.219 80.4595 0 82.9965 0 86.0495V88.9335C0 89.5245 0.478001 90.0015 1.068 90.0015H40.388C40.979 90.0015 41.456 89.5235 41.456 88.9335V86.0495C41.458 82.9965 39.238 80.4595 36.329 79.9515ZM7.266 77.4825H9.415V79.8525H7.266V77.4825ZM10.27 77.4825H34.192V79.8525H10.27V77.4825ZM30.292 43.3785H28.694C28.105 43.3785 27.626 43.8575 27.626 44.4465C27.626 45.0355 28.105 45.5145 28.694 45.5145H29.483C29.745 48.9385 30.653 60.0835 31.6 62.8595C32.313 64.9435 33.227 67.9515 33.745 69.6825H26.527C25.936 69.6825 25.458 70.1615 25.458 70.7505C25.458 71.3395 25.937 71.8195 26.527 71.8195H34.992C35.965 71.8195 36.756 72.6095 36.756 73.5815C36.756 74.5535 35.965 75.3445 34.992 75.3445H8.48C8.005 74.9055 7.705 74.2805 7.705 73.5815C7.705 72.8855 8.005 72.2595 8.48 71.8195H11.867C12.457 71.8195 12.935 71.3405 12.935 70.7505C12.935 70.1605 12.456 69.6825 11.867 69.6825H10.688C11.195 67.9835 12.152 64.8245 12.894 62.6525C13.814 59.9575 14.71 48.9785 14.975 45.5145H19.453C20.043 45.5145 20.521 45.0365 20.521 44.4465C20.521 43.8565 20.042 43.3785 19.453 43.3785H13.182C12.706 42.9385 12.407 42.3115 12.407 41.6125V41.5915H32.055V41.6165C32.054 42.5875 31.264 43.3785 30.292 43.3785ZM32.857 39.4545H30.833H11.216C10.729 39.0145 10.421 38.3805 10.421 37.6735C10.421 36.9865 10.712 36.3675 11.176 35.9285H32.856C33.828 35.9285 34.618 36.7195 34.618 37.6905C34.619 38.6635 33.829 39.4545 32.857 39.4545ZM32.475 21.0955C32.347 21.3455 32.234 21.5655 32.151 21.7495C31.934 22.2245 31.611 22.7685 31.267 23.3445C30.65 24.3815 30.011 25.4545 29.747 26.5265C29.546 27.3445 29.392 28.8175 29.306 29.8025H25.332C24.741 29.8025 24.264 30.2805 24.264 30.8705C24.264 31.4605 24.742 31.9395 25.332 31.9395H30.292C31.264 31.9395 32.054 32.7305 32.054 33.7025V33.7925H12.558V33.6845C12.558 32.9975 12.85 32.3785 13.313 31.9395H16.143C16.733 31.9395 17.212 31.4605 17.212 30.8705C17.212 30.2805 16.733 29.8025 16.143 29.8025H15.307C15.222 28.8385 15.075 27.4335 14.885 26.6615C14.534 25.2385 13.525 23.3815 12.787 22.0265L12.615 21.7095C12.527 21.5465 12.4 21.3395 12.251 21.0955C11.421 19.7415 9.968 17.3695 10.584 15.1565C12.976 14.1425 16.535 13.5895 20.947 13.5755C26.921 13.5435 31.078 14.5255 32.964 16.3765C34.15 17.5435 33.374 19.3475 32.475 21.0955ZM19.049 7.4385C18.357 7.0525 17.504 7.2135 16.678 7.3685C16.415 7.4175 16.012 7.4935 15.773 7.5035C15.612 7.0655 15.609 6.0905 15.753 5.6595C15.982 5.6805 16.336 5.7575 16.572 5.8085C17.507 6.0085 18.567 6.2375 19.285 5.5185C19.973 4.8305 19.761 3.8425 19.574 2.9715C19.532 2.7795 19.471 2.4955 19.448 2.2975C20.008 2.0725 21.336 2.0735 21.886 2.2945C21.861 2.4935 21.799 2.7785 21.759 2.9715C21.571 3.8425 21.36 4.8305 22.048 5.5195C22.766 6.2365 23.825 6.0085 24.761 5.8085C24.993 5.7585 25.341 5.6835 25.571 5.6605C25.724 6.1195 25.72 7.0905 25.571 7.4995C25.336 7.4885 24.936 7.4125 24.677 7.3625C23.828 7.1995 22.95 7.0305 22.247 7.4595C21.053 8.1865 21.237 10.1735 21.5 11.4425C21.372 11.4425 21.247 11.4385 21.117 11.4385C21.058 11.4385 20.999 11.4385 20.94 11.4395C20.581 11.4405 20.211 11.4465 19.836 11.4555C20.143 10.0445 20.288 8.1275 19.049 7.4385ZM9.274 21.6825C9.199 21.5445 9.105 21.3825 8.997 21.1985C7.751 19.0715 7.227 17.5315 8.462 16.4295C8.789 16.1385 9.182 15.8705 9.628 15.6215C9.339 17.9705 10.754 20.2905 11.522 21.5415C11.662 21.7695 11.781 21.9635 11.864 22.1165L12.037 22.4345C12.752 23.7485 13.731 25.5495 14.056 26.8655C14.227 27.5595 14.366 28.8655 14.45 29.8015H12.155C12.068 28.8165 11.915 27.3435 11.713 26.5255C11.409 25.2925 10.627 23.9795 9.937 22.8215C9.696 22.4205 9.466 22.0365 9.274 21.6825ZM11.166 31.9395H12.215C11.893 32.4445 11.704 33.0425 11.704 33.6845V33.7925H9.403V33.7015C9.403 32.7295 10.194 31.9395 11.166 31.9395ZM9.029 35.9285H10.077C9.756 36.4325 9.566 37.0305 9.566 37.6735C9.566 38.3305 9.763 38.9415 10.099 39.4545H9.029C8.056 39.4545 7.266 38.6635 7.266 37.6915C7.266 36.7195 8.057 35.9285 9.029 35.9285ZM9.403 41.5905H11.552V41.6155C11.552 42.2645 11.745 42.8685 12.074 43.3785H11.166C10.194 43.3785 9.403 42.5875 9.403 41.6155V41.5905ZM9.856 62.8595C10.805 60.0835 11.712 48.9385 11.973 45.5145H14.117C13.847 49.0115 12.957 59.8235 12.085 62.3755C11.301 64.6705 10.28 68.0535 9.795 69.6835H7.712C8.23 67.9525 9.144 64.9435 9.856 62.8595ZM6.464 71.8205H7.372C7.043 72.3295 6.85 72.9325 6.85 73.5825C6.85 74.2325 7.043 74.8365 7.371 75.3455H6.463C5.491 75.3455 4.701 74.5545 4.701 73.5825C4.701 72.6105 5.492 71.8205 6.464 71.8205ZM2.138 86.0495C2.138 83.8615 3.881 82.0745 6.052 81.9955C4.968 83.0115 4.287 84.4505 4.287 86.0495V87.8645H2.139V86.0495H2.138ZM39.321 87.8645H5.141V86.0495C5.141 84.3165 6.085 82.8045 7.484 81.9885H35.262C37.5 81.9885 39.322 83.8105 39.322 86.0495V87.8645H39.321Z" fill="url(#paint0_linear)"/>
<defs>
<linearGradient id="paint0_linear" x1="20.728" y1="0" x2="20.728" y2="90.0015" gradientUnits="userSpaceOnUse">
<stop stop-color="#FFC560"/>
<stop offset="1" stop-color="#C34337"/>
</linearGradient>
</defs>
</svg>
