<svg width="54" height="90" viewBox="0 0 54 90" fill="none" xmlns="http://www.w3.org/2000/svg">
<path d="M40.5 77.8749V74.4719C42.317 73.8259 43.624 72.0939 43.624 70.0579C43.624 67.9029 42.159 66.0879 40.174 65.5439V63.3369H40.714C41.226 63.3369 41.685 63.0219 41.867 62.5439C41.922 62.4009 42.157 61.7779 42.491 60.7709C44.128 58.4869 58.311 37.8549 51.244 18.0109C43.816 -2.84209 24.485 0.130906 24.291 0.163906C23.696 0.263906 23.259 0.778906 23.259 1.38291V9.53191C19.908 10.4629 17.535 12.2309 17.163 12.5189C16.34 13.0779 7.447 19.4849 0.894004 39.1249C0.812004 39.3229 0.710004 39.5229 0.612004 39.7219C0.312004 40.3229 0.00100281 40.9429 2.81207e-06 41.6259C-0.00199719 43.2459 1.063 45.4029 2.65 46.9929C4.083 48.4279 5.751 49.2189 7.346 49.2189H11.931C13.256 49.2189 14.333 48.1129 14.333 46.7549V42.2819C17.008 38.0099 21.389 37.1739 23.384 37.0219C23.443 38.8759 22.971 42.9109 18.366 46.0619C5.253 55.0349 9.355 62.4159 9.535 62.7249C9.757 63.1049 10.163 63.3369 10.602 63.3369H10.729V65.3819C8.241 65.4919 6.25 67.5439 6.25 70.0579C6.25 72.0939 7.557 73.8279 9.375 74.4729V77.8749C5.834 78.4669 3.125 81.5439 3.125 85.2499V88.7649C3.125 89.4469 3.678 89.9999 4.361 89.9999H45.511C46.194 89.9999 46.746 89.4459 46.746 88.7649V85.2499C46.749 81.5439 44.041 78.4669 40.5 77.8749ZM11.849 74.7439H14.182V77.7639H11.849V74.7439ZM15.17 74.7439H38.028V77.7639H15.17V74.7439ZM41.154 70.0579C41.154 71.2799 40.16 72.2729 38.939 72.2729H13.051C12.435 71.7309 12.045 70.9439 12.045 70.0579C12.045 69.1759 12.435 68.3859 13.048 67.8449H38.939C40.16 67.8449 41.154 68.8369 41.154 70.0579ZM33.421 10.4629C33.491 10.0679 33.647 9.72191 33.813 9.44391C35.55 10.3449 39.176 12.6469 42.193 17.3339C45.775 22.9019 49.157 33.0049 45.742 49.9859C45.438 50.6459 45.135 51.2789 44.834 51.8829C46.552 43.3979 47.548 31.3149 42.835 21.1449C40.889 16.9469 37.208 12.0399 33.421 10.4629ZM48.916 18.8399C52.296 28.3269 50.341 38.2329 47.453 45.8909C49.597 31.0969 46.375 21.9739 42.985 16.7389C39.928 12.0149 36.339 9.64991 34.445 8.64891C34.77 8.29491 34.865 7.78291 34.674 7.33391C34.468 6.84991 33.975 6.54991 33.454 6.58291C31.283 6.72791 29.634 7.51791 28.407 8.53391V2.45991C33.904 2.72991 44.048 5.17691 48.916 18.8399ZM25.731 2.48691C26.174 2.45391 26.75 2.42891 27.419 2.43291V8.95991C26.841 8.95491 26.28 8.99491 25.731 9.05591V2.48691ZM2.472 41.6449C2.488 41.4969 2.69 41.0939 2.824 40.8269C2.952 40.5699 3.085 40.3039 3.199 40.0199C3.209 39.9959 3.218 39.9719 3.226 39.9459C9.651 20.6579 18.482 14.6099 18.567 14.5529C18.598 14.5329 18.63 14.5099 18.658 14.4879C18.686 14.4649 20.534 13.0319 23.222 12.1369C22.585 12.5089 22.081 12.8629 21.802 13.1369L21.781 13.1049C21.401 13.3549 12.398 19.4359 5.759 39.3689C5.667 39.5959 5.551 39.8259 5.438 40.0529C5.165 40.6009 4.906 41.1179 4.905 41.6269C4.903 43.0639 5.881 45.0099 7.339 46.4699C7.437 46.5679 7.538 46.6559 7.637 46.7459H7.346C6.412 46.7459 5.366 46.2149 4.399 45.2459C3.146 43.9909 2.471 42.4459 2.472 41.6449ZM12.033 41.3019C12.021 41.3229 12.014 41.3459 12.003 41.3679C11.982 41.4079 11.962 41.4489 11.946 41.4909C11.932 41.5289 11.922 41.5669 11.911 41.6049C11.901 41.6429 11.89 41.6809 11.884 41.7209C11.877 41.7649 11.873 41.8099 11.871 41.8549C11.87 41.8789 11.864 41.9029 11.864 41.9279L11.861 46.7449H9.24601C8.83401 46.4829 8.43 46.1589 8.04 45.7699C6.795 44.5229 5.894 42.7809 5.895 41.6269C5.895 41.3509 6.113 40.9149 6.324 40.4939C6.449 40.2439 6.575 39.9899 6.687 39.7099C13.215 20.1149 22.235 13.9909 22.325 13.9309C22.338 13.9229 22.351 13.9129 22.363 13.9039C22.381 13.8899 23.772 12.7939 25.922 11.8869C25.757 12.2829 25.634 12.6569 25.56 12.9789C25.409 13.6429 25.822 14.2989 26.484 14.4539C27.148 14.6099 27.81 14.1969 27.968 13.5359C27.999 13.4029 28.619 10.9529 31.05 9.72291C30.92 10.2539 30.867 10.8459 30.946 11.4849C30.949 11.5089 30.955 11.5309 30.959 11.5539C30.982 11.7239 31.01 11.8949 31.054 12.0719C31.466 13.7179 31.046 14.0879 30.135 14.7039C29.571 15.0869 29.421 15.8549 29.804 16.4209C30.043 16.7739 30.432 16.9629 30.828 16.9629C31.066 16.9629 31.307 16.8949 31.519 16.7509C32.609 16.0139 33.577 15.0839 33.667 13.3929C36.102 14.9969 38.832 18.3899 40.591 22.1839C47.409 36.8969 41.277 56.6839 39.841 60.8649H35.664C34.981 60.8649 34.428 61.4179 34.428 62.1009C34.428 62.7839 34.982 63.3349 35.664 63.3349H37.703V65.3709H16.524V63.3349H20.834C21.516 63.3349 22.069 62.7829 22.069 62.1009C22.069 61.4169 21.516 60.8649 20.834 60.8649H14.403C14.303 59.1329 15.079 55.2849 22.028 50.1129C28.802 45.0709 28.959 38.0539 28.868 36.1749C33.683 34.3069 37.126 29.4479 37.126 23.7619C37.126 23.0789 36.572 22.5259 35.89 22.5259C35.208 22.5259 34.654 23.0789 34.654 23.7619C34.654 29.6849 30.112 34.5059 24.522 34.5219C23.827 34.4929 16.135 34.3299 12.033 41.3019ZM19.764 48.1019C25.328 44.2949 25.932 39.3239 25.853 36.9189C26.552 36.8399 27.234 36.6999 27.894 36.5059C27.943 38.5469 27.547 44.7749 21.439 49.3219C14.235 54.6829 13.284 58.8009 13.399 60.8659H11.44C10.975 59.2059 10.666 54.3269 19.764 48.1019ZM15.536 63.3369V65.3729H13.204V63.3369H15.536ZM8.724 70.0579C8.724 68.8369 9.717 67.8449 10.938 67.8449H11.737C11.307 68.4759 11.055 69.2389 11.055 70.0579C11.055 70.8789 11.305 71.6399 11.732 72.2729H10.938C9.717 72.2719 8.724 71.2789 8.724 70.0579ZM5.599 85.2499C5.599 82.6399 7.605 80.4909 10.155 80.2589C8.793 81.4929 7.931 83.2709 7.931 85.2499V87.5279H5.598V85.2499H5.599ZM44.278 87.5279H8.92V85.2499C8.92 83.0989 10.107 81.2239 11.859 80.2349H39.264C42.028 80.2349 44.278 82.4839 44.278 85.2499V87.5279Z" fill="url(#paint0_linear)"/>
<defs>
<linearGradient id="paint0_linear" x1="26.6025" y1="0" x2="26.6025" y2="89.9999" gradientUnits="userSpaceOnUse">
<stop stop-color="#FFC560"/>
<stop offset="1" stop-color="#C34337"/>
</linearGradient>
</defs>
</svg>
