<svg width="42" height="90" viewBox="0 0 42 90" fill="none" xmlns="http://www.w3.org/2000/svg">
<path d="M36.474 79.91V77.193C37.973 76.641 39.049 75.206 39.049 73.518C39.049 71.618 37.689 70.031 35.891 69.677C34.884 68.424 31.191 63.728 30.327 61.199C29.531 58.87 28.365 47.079 27.887 41.665C29.389 41.117 30.468 39.679 30.468 37.988V37.722C31.967 37.173 33.045 35.736 33.045 34.048C33.045 32.253 31.826 30.739 30.177 30.279C30.389 28.105 31.202 25.12 31.334 24.638C31.843 23.346 32.102 21.983 32.102 20.583C32.103 17.166 30.561 13.994 27.874 11.878C27.869 11.875 27.864 11.873 27.858 11.869C27.858 11.868 27.856 11.866 27.854 11.866C27.275 11.431 25.673 10.004 25.254 8.623C25.042 7.924 24.514 6.767 24.185 6.076C24.638 5.433 24.89 4.665 24.89 3.862C24.89 1.732 23.157 0 21.028 0C18.899 0 17.167 1.732 17.167 3.862C17.167 4.628 17.332 5.308 17.646 5.878C17.479 6.413 17.021 7.886 16.818 8.662C16.364 10.394 14.595 11.885 14.579 11.898C14.566 11.91 14.556 11.922 14.543 11.934C14.53 11.946 14.517 11.955 14.504 11.966C14.49 11.98 14.481 11.996 14.468 12.01C14.443 12.038 14.419 12.068 14.397 12.097C14.376 12.125 14.357 12.153 14.341 12.183C14.323 12.214 14.306 12.246 14.292 12.277C14.277 12.308 14.265 12.34 14.253 12.372C14.241 12.404 14.232 12.437 14.224 12.47C14.216 12.504 14.209 12.538 14.204 12.572C14.2 12.606 14.196 12.639 14.195 12.674C14.194 12.707 14.194 12.741 14.195 12.776C14.197 12.811 14.2 12.844 14.204 12.879C14.209 12.913 14.216 12.947 14.224 12.98C14.232 13.014 14.242 13.046 14.254 13.079C14.266 13.111 14.278 13.145 14.295 13.178C14.31 13.209 14.324 13.239 14.342 13.268C14.362 13.3 14.383 13.331 14.405 13.361C14.416 13.376 14.425 13.393 14.436 13.408C14.447 13.422 14.46 13.431 14.472 13.444C14.484 13.457 14.492 13.471 14.504 13.484L18.962 17.942L18.173 18.728L13.57 14.126C13.345 13.901 13.031 13.788 12.715 13.815C12.399 13.842 12.112 14.01 11.929 14.272C10.636 16.132 9.951 18.315 9.951 20.585C9.951 21.997 10.215 23.373 10.731 24.674C10.731 24.675 10.732 24.675 10.732 24.676C10.86 25.059 11.711 27.699 11.888 30.276C10.232 30.731 9.01 32.248 9.01 34.047C9.01 35.57 9.885 36.887 11.155 37.535V37.987C11.155 39.677 12.233 41.116 13.737 41.664C13.258 47.078 12.093 58.867 11.297 61.198C10.434 63.726 6.739 68.423 5.732 69.676C3.936 70.03 2.574 71.616 2.574 73.517C2.574 75.205 3.65 76.64 5.149 77.192V79.909C2.229 80.42 0 82.968 0 86.032V88.928C0 89.521 0.48 90.001 1.073 90.001H40.55C41.143 90.001 41.623 89.521 41.623 88.928V86.033C41.622 82.969 39.395 80.421 36.474 79.91ZM7.295 77.433H9.452V79.811H7.295V77.433V77.433ZM10.311 77.433H34.329V79.811H10.311V77.433ZM26.551 39.76H24.519C23.926 39.76 23.447 40.24 23.447 40.833C23.447 41.425 23.926 41.906 24.519 41.906H25.753C26.089 45.7 27.331 59.07 28.296 61.894C29.054 64.115 31.518 67.537 33.102 69.602H30.848C30.254 69.602 29.775 70.081 29.775 70.676C29.775 71.269 30.254 71.748 30.848 71.748H35.132C36.109 71.748 36.903 72.541 36.903 73.519C36.903 74.495 36.109 75.289 35.132 75.289H8.515C8.037 74.847 7.736 74.218 7.736 73.519C7.736 72.82 8.037 72.191 8.515 71.748H11.914C12.507 71.748 12.986 71.269 12.986 70.676C12.986 70.081 12.505 69.602 11.914 69.602H11.368C12.896 67.636 15.598 63.974 16.378 61.685C17.316 58.94 18.541 45.751 18.883 41.904H19.529C20.122 41.904 20.602 41.425 20.602 40.832C20.602 40.239 20.122 39.759 19.529 39.759H17.095C16.617 39.317 16.316 38.688 16.316 37.986V37.965H28.318V37.989C28.321 38.965 27.528 39.76 26.551 39.76ZM30.895 34.049C30.895 35.025 30.101 35.82 29.125 35.82H27.092H14.705C14.252 35.376 13.969 34.759 13.969 34.077C13.969 33.365 14.277 32.726 14.764 32.28H29.125C30.101 32.28 30.895 33.073 30.895 34.049ZM22.742 3.865C22.742 4.257 22.607 4.63 22.368 4.931H20.99C20.556 3.759 20.709 2.791 20.941 2.157C20.97 2.156 20.998 2.148 21.028 2.148C21.974 2.149 22.742 2.919 22.742 3.865ZM19.945 2.544C19.813 3.199 19.799 4.011 20.086 4.932H19.577C19.401 4.667 19.311 4.31 19.311 3.866C19.311 3.332 19.562 2.858 19.945 2.544ZM18.893 9.209C19.033 8.672 19.316 7.737 19.519 7.077H20.843C20.571 8.199 20.159 9.866 19.872 10.868C19.535 12.048 18.561 13.143 17.863 13.812L16.791 12.74C17.516 11.961 18.504 10.691 18.893 9.209ZM18.93 21.006L21.238 18.706C21.44 18.505 21.552 18.231 21.553 17.947C21.554 17.663 21.441 17.389 21.24 17.188L18.472 14.421C19.243 13.683 20.309 12.468 20.699 11.104C21.008 10.025 21.456 8.2 21.726 7.078H22.285C22.609 7.768 23.046 8.739 23.201 9.249C23.901 11.556 26.404 13.462 26.563 13.582C28.719 15.288 29.957 17.839 29.957 20.585C29.957 21.726 29.744 22.834 29.327 23.882C29.324 23.89 29.323 23.9 29.32 23.907C29.309 23.932 29.298 23.956 29.29 23.983C29.244 24.146 28.282 27.548 28.036 30.131H16.762C16.626 28.671 16.263 25.958 15.317 23.617C14.594 21.83 14.524 20.176 15.086 18.676L17.414 21.003C17.833 21.424 18.512 21.424 18.93 21.006ZM13.028 16.621L14.42 18.013C13.623 19.81 13.653 21.8 14.521 23.944C15.401 26.119 15.757 28.704 15.897 30.136H14.032C13.821 27.075 12.794 24.07 12.745 23.929C12.742 23.917 12.736 23.908 12.73 23.897C12.729 23.893 12.728 23.889 12.727 23.883C12.31 22.835 12.099 21.726 12.099 20.586C12.099 19.197 12.416 17.847 13.028 16.621ZM12.927 32.28H12.997H13H13.647C13.31 32.797 13.11 33.413 13.11 34.077C13.11 34.716 13.297 35.313 13.614 35.82H12.927C11.95 35.82 11.157 35.026 11.157 34.049C11.158 33.073 11.951 32.28 12.927 32.28ZM13.303 37.965H15.459V37.989C15.459 38.642 15.654 39.248 15.984 39.759H15.073C14.096 39.759 13.303 38.965 13.303 37.989V37.965ZM13.329 61.894C14.293 59.07 15.535 45.699 15.871 41.906H18.021C17.672 45.805 16.455 58.805 15.565 61.409C14.759 63.77 11.636 67.878 10.273 69.602H8.52C10.106 67.535 12.57 64.114 13.329 61.894ZM6.491 71.748H7.402C7.071 72.259 6.878 72.867 6.878 73.519C6.878 74.171 7.072 74.777 7.402 75.289H6.491C5.515 75.289 4.721 74.495 4.721 73.519C4.721 72.541 5.515 71.748 6.491 71.748ZM2.146 86.033C2.146 83.835 3.896 82.042 6.075 81.965C4.987 82.984 4.303 84.429 4.303 86.033V87.855H2.146V86.033ZM39.478 87.856H5.162V86.033C5.162 84.294 6.109 82.776 7.514 81.955H35.4C37.65 81.955 39.478 83.786 39.478 86.033V87.856Z" fill="url(#paint0_linear)"/>
<path d="M21.835 70.676C21.835 71.269 22.316 71.748 22.906 71.748H26.985C27.578 71.748 28.059 71.269 28.059 70.676C28.059 70.081 27.578 69.602 26.985 69.602H22.906C22.317 69.602 21.835 70.083 21.835 70.676Z" fill="url(#paint1_linear)"/>
<defs>
<linearGradient id="paint0_linear" x1="20.8115" y1="0" x2="20.8115" y2="90.001" gradientUnits="userSpaceOnUse">
<stop stop-color="#FFC560"/>
<stop offset="1" stop-color="#C34337"/>
</linearGradient>
<linearGradient id="paint1_linear" x1="24.947" y1="69.602" x2="24.947" y2="71.748" gradientUnits="userSpaceOnUse">
<stop stop-color="#FFC560"/>
<stop offset="1" stop-color="#C34337"/>
</linearGradient>
</defs>
</svg>
